<?xml version="1.0" encoding="utf-8"?>
<!-- Generator: Adobe Illustrator 27.3.1, SVG Export Plug-In . SVG Version: 6.00 Build 0)  -->
<svg version="1.2" baseProfile="tiny" id="Layer_3" xmlns="http://www.w3.org/2000/svg" xmlns:xlink="http://www.w3.org/1999/xlink"
	 x="0px" y="0px" viewBox="0 0 402.1 76.1" overflow="visible" xml:space="preserve">
<image width="50" height="51" xlink:href="CB2B7457.png"  transform="matrix(1 0 0 1 -1 7.08)">
</image>
<image width="42" height="41" xlink:href="CB2B7455.png"  transform="matrix(1 0 0 1 52 17.08)">
</image>
<image width="67" height="41" xlink:href="CB2B745B.png"  transform="matrix(1 0 0 1 99 17.08)">
</image>
<image width="42" height="59" xlink:href="CB2B745D.png"  transform="matrix(1 0 0 1 174 17.08)">
</image>
<image width="42" height="41" xlink:href="CB2B745F.png"  transform="matrix(1 0 0 1 219 17.08)">
</image>
<image width="39" height="41" xlink:href="CB2B745C.png"  transform="matrix(1 0 0 1 269 17.08)">
</image>
<image width="15" height="57" xlink:href="CB2B7454.png"  transform="matrix(1 0 0 1 315 1.08)">
</image>
<image width="24" height="56" xlink:href="CB2B7456.png"  transform="matrix(1 0 0 1 333 2.08)">
</image>
<image width="46" height="58" xlink:href="CB2B7452.png"  transform="matrix(1 0 0 1 357 18.08)">
</image>
<image width="17" height="17" xlink:href="5D47D094.png"  transform="matrix(1 0 0 1 314 -0.92)">
</image>
</svg>
