<?xml version="1.0" encoding="UTF-8"?>
<svg id="b" data-name="Layer 2" xmlns="http://www.w3.org/2000/svg" viewBox="0 0 152.89 28">
  <g id="c" data-name="Layer 1">
    <rect width="28" height="28" rx="6" ry="6" fill="#d4d4d4" opacity=".8"/>
    <path d="m11.98,19.98c-1.25,0-2.48-.38-3.52-1.08-.57-.39-1.07-.86-1.49-1.4-.94-1.23-1.41-2.75-1.33-4.29.07-1.54.69-3.01,1.74-4.13,2.15-2.32,5.68-2.67,8.25-.83l.49-2.12c-1.7-.99-3.69-1.34-5.63-.99-1.94.36-3.69,1.39-4.94,2.91-1.26,1.54-1.96,3.46-1.96,5.45,0,1.99.67,3.92,1.93,5.47l-2.24,2.27c-.4.4-.4,1.06,0,1.46.39.4,1.03.4,1.42.01,0,0,0,0,.01-.01l2.28-2.32c1.66,1.26,3.74,1.84,5.82,1.62,2.08-.22,4-1.21,5.38-2.78l-.5-2.89c-.52,1.09-1.33,2.01-2.34,2.66-1.01.65-2.18.99-3.37.99Z" fill="#fff"/>
    <path d="m10.33,14.27h5.72l1.67-6.55c.05-.21.35-.2.39.02l1.68,10.02c.02.11.12.18.23.16.06-.01.11-.05.14-.1l1.97-3.56h2.86" fill="none" stroke="#fff" stroke-linecap="round" stroke-width="1.5"/>
    <path d="m46.37,23c-.45,0-.81-.18-1.08-.55l-5.54-7.3,2.18-2.23,5.74,7.58c.22.3.34.63.34.98,0,.45-.17.82-.5,1.1-.32.26-.72.41-1.13.41Zm.29-16.92c.38,0,.7.16.94.48.26.3.38.62.38.94,0,.34-.14.65-.43.94l-10.06,9.62-.12-3.43,8.11-7.99c.37-.37.76-.55,1.18-.55Zm-10.37,16.92c-.45,0-.81-.14-1.08-.41-.27-.28-.42-.66-.41-1.06V7.66c0-.42.14-.76.43-1.03.29-.29.66-.43,1.1-.43s.8.14,1.06.43c.27.27.41.62.41,1.03v13.87c0,.42-.14.77-.41,1.06-.27.27-.64.41-1.1.41Zm16.64-1.46c0,.42-.14.77-.43,1.06-.27.27-.62.41-1.03.41s-.74-.14-1.01-.41c-.27-.28-.42-.66-.41-1.06V6.7c0-.42.14-.76.41-1.03.29-.29.64-.43,1.06-.43s.75.14,1.01.43c.27.27.41.62.41,1.03v14.83Zm15.09-4.94c0,1.31-.3,2.47-.89,3.48-.56.97-1.37,1.78-2.35,2.33-.98.56-2.07.84-3.29.84s-2.32-.28-3.31-.84c-.97-.56-1.78-1.36-2.35-2.33-.58-1.01-.86-2.17-.86-3.48s.29-2.46.86-3.46c.56-.98,1.37-1.79,2.35-2.35.99-.58,2.1-.86,3.31-.86s2.31.29,3.29.86c.99.55,1.8,1.37,2.35,2.35.59.99.89,2.14.89,3.46Zm-2.88,0c0-.82-.17-1.52-.5-2.11-.3-.59-.76-1.08-1.32-1.42-.55-.34-1.18-.51-1.82-.5-.67,0-1.29.17-1.85.5-.56.35-1.01.84-1.32,1.42-.32.59-.48,1.3-.48,2.11s.16,1.5.48,2.11c.31.57.77,1.05,1.32,1.39.56.34,1.18.5,1.85.5s1.28-.17,1.82-.5c.56-.34,1-.8,1.32-1.39.34-.61.5-1.31.5-2.11Zm14.45-6.43c.42,0,.76.14,1.03.43.27.27.41.62.41,1.03v6.1c0,1.7-.47,3.04-1.42,4.03s-2.3,1.49-4.08,1.49-3.14-.5-4.08-1.49c-.93-.99-1.39-2.34-1.39-4.03v-6.1c0-.42.14-.76.41-1.03.27-.29.64-.44,1.03-.43.42,0,.76.14,1.03.43.27.27.41.62.41,1.03v6.1c0,.98.21,1.7.65,2.18.43.46,1.08.7,1.94.7s1.54-.23,1.97-.7c.43-.48.65-1.21.65-2.18v-6.1c0-.42.14-.76.41-1.03.27-.29.64-.44,1.03-.43h0Zm14.59-4.92c.42,0,.76.14,1.03.41.27.27.41.62.41,1.06v14.83c0,.42-.14.77-.41,1.06-.27.27-.62.41-1.03.41s-.76-.14-1.03-.41c-.27-.28-.42-.66-.41-1.06v-1.18l.53.22c0,.21-.11.46-.34.77-.26.33-.57.62-.91.86-.38.29-.84.54-1.37.74-.54.2-1.11.29-1.68.29-1.1,0-2.1-.28-3-.84-.9-.58-1.61-1.36-2.14-2.35-.51-1.01-.77-2.16-.77-3.46s.26-2.46.77-3.46c.53-1.01,1.23-1.79,2.11-2.35.87-.57,1.89-.87,2.93-.86.69,0,1.32.1,1.9.31.53.19,1.04.45,1.49.79.43.32.76.65.98.98.24.32.36.59.36.82l-.86.31v-6.43c0-.42.14-.76.41-1.03.27-.29.64-.44,1.03-.43Zm-4.85,15.36c.7,0,1.32-.18,1.85-.53.53-.36.96-.86,1.22-1.44.3-.61.46-1.29.46-2.04s-.15-1.46-.46-2.06c-.27-.58-.69-1.08-1.22-1.44-.53-.35-1.14-.53-1.85-.53s-1.3.18-1.82.53c-.54.36-.97.86-1.25,1.44-.29.61-.43,1.3-.43,2.06s.14,1.43.43,2.04c.3.61.72,1.09,1.25,1.44.53.35,1.14.53,1.82.53Zm10.68-14.42c.22,0,.46.06.7.19.26.11.45.26.58.46l5.83,8.98-1.2-.05,5.98-8.93c.3-.43.7-.65,1.18-.65.38,0,.73.14,1.03.41s.46.62.46,1.06v13.9c0,.42-.14.77-.41,1.06-.27.27-.63.41-1.08.41s-.82-.14-1.1-.41c-.27-.28-.42-.66-.41-1.06v-11.3l.94.22-4.9,7.46c-.15.18-.34.34-.55.46-.19.12-.42.18-.65.17-.23.01-.45-.05-.65-.17-.2-.12-.38-.28-.53-.46l-4.58-7.25.62-1.27v12.14c0,.42-.13.77-.38,1.06-.26.27-.59.41-1.01.41s-.73-.14-.98-.41c-.26-.29-.39-.67-.38-1.06V7.64c0-.4.14-.74.43-1.03.29-.28.68-.44,1.08-.43Zm27.94,3.74c.42,0,.76.14,1.03.41s.41.62.41,1.06v10.15c0,.42-.14.77-.41,1.06-.27.27-.62.41-1.03.41s-.76-.14-1.03-.41c-.27-.28-.42-.66-.41-1.06v-1.18l.53.22c0,.21-.11.46-.34.77-.26.33-.57.62-.91.86-.38.29-.84.54-1.37.74-.54.2-1.11.29-1.68.29-1.1,0-2.1-.28-3-.84-.9-.58-1.61-1.36-2.14-2.35-.51-1.01-.77-2.16-.77-3.46s.26-2.46.77-3.46c.53-1.01,1.23-1.79,2.11-2.35.87-.57,1.89-.87,2.93-.86.69,0,1.32.1,1.9.31.53.19,1.04.45,1.49.79.43.32.76.65.98.98.24.32.36.59.36.82l-.86.31v-1.75c0-.42.14-.76.41-1.03.27-.29.64-.44,1.03-.43h0Zm-4.85,10.68c.7,0,1.32-.18,1.85-.53.53-.36.96-.86,1.22-1.44.3-.61.46-1.29.46-2.04s-.15-1.46-.46-2.06c-.27-.58-.69-1.08-1.22-1.44-.53-.35-1.14-.53-1.85-.53s-1.3.18-1.82.53c-.54.36-.97.86-1.25,1.44-.29.61-.43,1.3-.43,2.06s.14,1.43.43,2.04c.3.61.72,1.09,1.25,1.44.53.35,1.14.53,1.82.53Zm9.07-10.2h5.69c.38,0,.7.13.96.38s.38.58.38.96-.13.68-.38.94c-.26.24-.58.36-.96.36h-5.69c-.38,0-.7-.13-.96-.38-.26-.25-.39-.6-.38-.96,0-.37.13-.67.38-.91.26-.26.58-.38.96-.38Zm2.57-3c.42,0,.75.14,1.01.43.27.27.41.62.41,1.03v10.68c0,.22.04.41.12.55.09.14.21.24.36.31.16.06.33.1.5.1.19,0,.37-.03.53-.1.16-.08.34-.12.55-.12.22,0,.42.1.6.31.19.21.29.5.29.86,0,.45-.25.82-.74,1.1-.48.29-1,.43-1.56.43-.34,0-.71-.02-1.13-.07-.4-.06-.78-.2-1.15-.41-.35-.22-.65-.56-.89-1.01s-.36-1.06-.36-1.85v-10.8c0-.42.14-.76.41-1.03.29-.29.64-.43,1.06-.43Zm12.56,15.84c-1.36,0-2.54-.28-3.55-.84-.97-.55-1.76-1.36-2.3-2.33-.53-.98-.79-2.08-.79-3.31,0-1.44.29-2.66.86-3.67.59-1.02,1.36-1.81,2.3-2.35.91-.53,1.95-.82,3-.82.82,0,1.58.17,2.3.5.74.34,1.38.8,1.94,1.39.56.58,1,1.25,1.32,2.02.34.77.51,1.61.5,2.45,0,.36-.17.71-.46.94-.29.24-.62.36-1.01.36h-9.17l-.72-2.4h8.81l-.53.48v-.65c-.03-.46-.21-.9-.5-1.25-.29-.37-.67-.67-1.1-.86-.43-.22-.91-.34-1.39-.34-.48,0-.93.06-1.34.19-.41.12-.78.35-1.08.65-.3.3-.54.71-.72,1.22s-.26,1.16-.26,1.94c0,.86.18,1.6.53,2.21.34.57.82,1.04,1.39,1.37.56.3,1.19.46,1.82.46.59,0,1.06-.05,1.42-.14.35-.1.63-.21.84-.34.22-.14.42-.26.6-.36.25-.13.53-.21.82-.22.35,0,.64.12.86.36.24.24.36.52.36.84,0,.43-.22.82-.67,1.18-.42.35-1,.66-1.75.94-.75.26-1.54.39-2.33.38Z" fill="#d4d4d4" opacity=".8"/>
  </g>
</svg>